# Blender v2.79 (sub 0) OBJ File: 'Arwing.blend'
# www.blender.org
mtllib Arwing.mtl
o Arwing_Cube.002
v 0.000000 0.900000 1.500000
v 0.000000 1.150000 -2.500000
v -0.707107 0.650000 -1.000000
v 0.000000 1.857107 -1.000000
v 0.707107 0.650000 -1.000000
v -1.000000 0.250000 -1.000000
v -6.500000 0.000000 -4.500000
v -3.000000 0.375000 -2.000000
v -3.000000 0.125000 -4.000000
v -3.000000 0.250000 -2.000000
v -1.000000 0.000000 -1.000000
v -5.000000 0.125000 -3.250000
v -2.000000 0.000000 -3.500000
v -1.000000 0.000000 0.000000
v -4.000000 0.250000 -4.000000
v -3.000000 0.000000 -3.000000
v -2.500000 0.000000 -1.000000
v -2.000000 0.000000 -2.000000
v -3.000000 0.250000 -4.000000
v -2.000000 0.000000 -3.000000
v -4.000000 0.250000 -3.000000
v -5.000000 0.250000 -3.250000
v -1.000000 0.000000 -2.000000
v -4.000000 0.375000 -4.000000
v -3.000000 0.500000 -3.000000
v -2.500000 0.250000 -1.000000
v -2.000000 0.500000 -2.000000
v -2.000000 0.250000 -3.000000
v -4.000000 0.375000 -3.000000
v 1.000000 0.250000 -1.000000
v 6.500000 0.000000 -4.500000
v 3.000000 0.375000 -2.000000
v 3.000000 0.125000 -4.000000
v 3.000000 0.250000 -2.000000
v 1.000000 0.000000 -1.000000
v 5.000000 0.125000 -3.250000
v 2.000000 0.000000 -3.500000
v 1.000000 0.000000 0.000000
v 4.000000 0.250000 -4.000000
v 3.000000 0.000000 -3.000000
v 2.500000 0.000000 -1.000000
v 2.000000 0.000000 -2.000000
v 3.000000 0.250000 -4.000000
v 2.000000 0.000000 -3.000000
v 4.000000 0.250000 -3.000000
v 5.000000 0.250000 -3.250000
v 1.000000 0.000000 -2.000000
v 4.000000 0.375000 -4.000000
v 3.000000 0.500000 -3.000000
v 2.500000 0.250000 -1.000000
v 2.000000 0.500000 -2.000000
v 2.000000 0.250000 -3.000000
v 4.000000 0.375000 -3.000000
v 1.400000 2.000000 -5.200000
v 1.400000 -2.000000 -5.200000
v 1.400000 0.000000 2.800000
v 1.400000 0.000000 -1.200000
v 1.150000 2.000000 -5.200000
v 1.150000 0.000000 -1.200000
v 1.150000 -2.000000 -5.200000
v 1.525000 1.000000 -1.200000
v 1.650000 1.000000 -3.200000
v 1.525000 -1.000000 -3.200000
v 1.650000 0.000000 0.800000
v 1.525000 -1.000000 -1.200000
v -1.400000 2.000000 -5.200000
v -1.400000 -2.000000 -5.200000
v -1.400000 0.000000 -1.200000
v -1.150000 2.000000 -5.200000
v -1.400000 0.000000 2.800000
v -1.150000 0.000000 -1.200000
v -1.150000 -2.000000 -5.200000
v -1.525000 1.000000 -1.200000
v -1.650000 1.000000 -3.200000
v -1.525000 -1.000000 -3.200000
v -1.650000 0.000000 0.800000
v -1.525000 -1.000000 -1.200000
v -1.414213 0.000000 -1.000000
v 0.000000 1.414214 -1.000000
v 0.000000 0.000000 8.000000
v 0.000000 -1.414213 -1.000000
v 1.414213 0.000000 -1.000000
v 0.000000 1.414214 -2.000000
v -1.414213 0.000000 -2.000000
v 0.000000 -1.414213 -2.000000
v 1.414213 0.000000 -2.000000
v 0.000000 1.060660 -3.000000
v -1.060660 0.000000 -3.000000
v 0.000000 -1.060660 -3.000000
v 1.060660 0.000000 -3.000000
v 0.000000 0.397748 -3.200000
v -0.397747 0.000000 -3.200000
v 0.000000 -0.397747 -3.200000
v 0.397747 0.000000 -3.200000
vn -0.8394 0.4917 -0.2318
vn 0.8471 0.4962 0.1900
vn 0.8394 0.4917 -0.2318
vn -0.8471 0.4962 0.1900
vn -0.1104 0.9937 0.0184
vn 0.0415 0.9957 0.0830
vn 0.2408 0.9631 0.1204
vn -0.0000 1.0000 0.0000
vn 0.1231 0.9847 -0.1231
vn 0.1839 0.9810 0.0613
vn 0.2357 0.9428 -0.2357
vn 0.1375 -0.9903 0.0183
vn -0.3015 -0.9045 0.3015
vn 0.1219 -0.9755 -0.1829
vn -0.1959 -0.9794 -0.0490
vn -0.0000 -0.9701 -0.2425
vn -0.4364 -0.8729 0.2182
vn -0.0623 -0.9961 0.0623
vn -0.0000 -0.9923 0.1240
vn 0.1231 -0.9847 -0.1231
vn -0.4472 0.0000 0.8944
vn -1.0000 -0.0000 0.0000
vn 0.5547 -0.0000 -0.8321
vn 0.0000 0.0000 1.0000
vn -0.7071 0.0000 0.7071
vn -0.1961 0.0000 0.9806
vn 0.6402 0.0000 -0.7682
vn 0.2425 0.0000 -0.9701
vn 0.7071 0.0000 -0.7071
vn 0.8944 0.0000 -0.4472
vn -0.1104 -0.9937 -0.0184
vn 0.0415 -0.9957 -0.0830
vn 0.2408 -0.9631 -0.1204
vn -0.0000 -1.0000 -0.0000
vn 0.1231 -0.9847 0.1231
vn 0.1839 -0.9810 -0.0613
vn 0.2357 -0.9428 0.2357
vn 0.1375 0.9903 -0.0183
vn -0.3015 0.9045 -0.3015
vn 0.1219 0.9755 0.1829
vn -0.1959 0.9794 0.0490
vn -0.0000 0.9701 0.2425
vn -0.4364 0.8729 -0.2182
vn -0.0623 0.9961 -0.0623
vn -0.0000 0.9923 -0.1240
vn 0.1231 0.9847 0.1231
vn -0.4472 0.0000 -0.8944
vn 0.5547 0.0000 0.8321
vn 0.0000 0.0000 -1.0000
vn -0.7071 0.0000 -0.7071
vn -0.1961 0.0000 -0.9806
vn 0.6402 0.0000 0.7682
vn 0.2425 0.0000 0.9701
vn 0.7071 0.0000 0.7071
vn 0.8944 0.0000 0.4472
vn -0.7028 0.7028 0.1104
vn 0.7071 0.7071 0.0000
vn 0.7028 -0.7028 0.1104
vn -0.7028 -0.7028 0.1104
vn 0.7028 0.7028 0.1104
vn -0.6860 -0.6860 -0.2425
vn -0.7071 0.7071 0.0000
vn 0.7071 -0.7071 0.0000
vn -0.7071 -0.7071 0.0000
vn 0.2775 0.2775 -0.9198
vn 0.6860 0.6860 -0.2425
vn -0.6860 0.6860 -0.2425
vn 0.6860 -0.6860 -0.2425
vn -0.2775 0.2775 -0.9198
vn 0.2775 -0.2775 -0.9198
vn -0.2775 -0.2775 -0.9198
vn -0.9300 0.3487 -0.1162
vn -0.9300 -0.3487 -0.1162
vn 0.0000 0.9701 -0.2425
vn 0.0000 0.8944 0.4472
vn -0.0000 -0.8944 0.4472
vn 0.9904 0.1238 -0.0619
vn 0.9904 -0.1238 -0.0619
vn -0.8889 0.4444 0.1111
vn -0.9684 -0.2421 -0.0605
vn -0.9347 -0.3505 -0.0584
vn -0.9923 0.1240 0.0000
vn -0.9300 -0.3487 0.1162
vn -0.9300 0.3487 0.1162
vn 0.0000 -0.9701 0.2425
vn 0.0000 -0.8944 -0.4472
vn 0.0000 0.8944 -0.4472
vn 0.9904 -0.1238 0.0619
vn 0.9904 0.1238 0.0619
vn -0.8889 -0.4444 -0.1111
vn -0.9684 0.2421 0.0605
vn -0.9347 0.3505 0.0584
vn -0.9923 -0.1240 0.0000
usemtl Glass
s off
f 3//1 4//1 2//1
f 5//2 4//2 1//2
f 2//3 4//3 5//3
f 1//4 4//4 3//4
usemtl Body
f 21//5 15//5 7//5 12//5
f 20//6 13//6 9//6 16//6
f 17//7 18//7 10//7
f 11//8 23//8 18//8 17//8
f 14//8 11//8 17//8
f 23//8 20//8 18//8
f 18//9 20//9 16//9 10//9
f 16//10 9//10 15//10 21//10
f 10//11 16//11 21//11
f 29//12 22//12 7//12 24//12
f 28//13 25//13 19//13 13//13
f 26//14 8//14 27//14
f 6//15 26//15 27//15 23//15
f 14//16 26//16 6//16
f 23//17 27//17 28//17
f 27//18 8//18 25//18 28//18
f 25//19 29//19 24//19 19//19
f 8//20 29//20 25//20
f 9//21 13//21 19//21
f 11//22 14//22 6//22
f 14//23 17//23 26//23
f 15//24 9//24 19//24 24//24
f 20//25 23//25 28//25
f 23//22 11//22 6//22
f 7//26 15//26 24//26
f 12//27 7//27 22//27
f 13//22 20//22 28//22
f 21//28 12//28 22//28 29//28
f 10//29 21//29 29//29 8//29
f 17//30 10//30 8//30 26//30
f 45//31 39//31 31//31 36//31
f 44//32 37//32 33//32 40//32
f 41//33 42//33 34//33
f 35//34 47//34 42//34 41//34
f 38//34 35//34 41//34
f 47//34 44//34 42//34
f 42//35 44//35 40//35 34//35
f 40//36 33//36 39//36 45//36
f 34//37 40//37 45//37
f 53//38 46//38 31//38 48//38
f 52//39 49//39 43//39 37//39
f 50//40 32//40 51//40
f 30//41 50//41 51//41 47//41
f 38//42 50//42 30//42
f 47//43 51//43 52//43
f 51//44 32//44 49//44 52//44
f 49//45 53//45 48//45 43//45
f 32//46 53//46 49//46
f 33//47 37//47 43//47
f 35//22 38//22 30//22
f 38//48 41//48 50//48
f 39//49 33//49 43//49 48//49
f 44//50 47//50 52//50
f 47//22 35//22 30//22
f 31//51 39//51 48//51
f 36//52 31//52 46//52
f 37//22 44//22 52//22
f 45//53 36//53 46//53 53//53
f 34//54 45//54 53//54 32//54
f 41//55 34//55 32//55 50//55
f 80//56 79//56 78//56
f 79//57 82//57 86//57 83//57
f 81//58 82//58 80//58
f 78//59 81//59 80//59
f 82//60 79//60 80//60
f 85//61 84//61 88//61 89//61
f 78//62 79//62 83//62 84//62
f 82//63 81//63 85//63 86//63
f 81//64 78//64 84//64 85//64
f 87//65 90//65 94//65 91//65
f 83//66 86//66 90//66 87//66
f 84//67 83//67 87//67 88//67
f 86//68 85//68 89//68 90//68
f 92//49 91//49 94//49 93//49
f 88//69 87//69 91//69 92//69
f 90//70 89//70 93//70 94//70
f 89//71 88//71 92//71 93//71
usemtl Color
f 56//72 64//72 65//72
f 56//73 61//73 64//73
f 56//74 55//74 60//74
f 57//75 54//75 58//75 59//75
f 56//74 65//74 55//74
f 55//76 63//76 57//76
f 54//16 61//16 56//16
f 57//75 62//75 54//75
f 56//77 60//77 59//77
f 56//78 59//78 58//78
f 55//76 57//76 59//76 60//76
f 54//16 56//16 58//16
f 64//79 62//79 57//79
f 64//80 61//80 62//80
f 61//81 54//81 62//81
f 65//82 63//82 55//82
f 65//82 64//82 63//82
f 64//83 57//83 63//83
f 70//83 76//83 77//83
f 70//84 73//84 76//84
f 70//85 67//85 72//85
f 68//86 66//86 69//86 71//86
f 70//85 77//85 67//85
f 67//87 75//87 68//87
f 66//42 73//42 70//42
f 68//86 74//86 66//86
f 70//88 72//88 71//88
f 70//89 71//89 69//89
f 67//87 68//87 71//87 72//87
f 66//42 70//42 69//42
f 76//90 74//90 68//90
f 76//91 73//91 74//91
f 73//92 66//92 74//92
f 77//93 75//93 67//93
f 77//93 76//93 75//93
f 76//72 68//72 75//72
