# Blender v2.79 (sub 0) OBJ File: 'Arwing.blend'
# www.blender.org
mtllib Arwing.mtl
o Plane.003
v -1.000000 0.250000 -1.000000
v -6.500000 0.000000 -4.500000
v -3.000000 0.375000 -2.000000
v -3.000000 0.125000 -4.000000
v -3.000000 0.250000 -2.000000
v -1.000000 0.000000 -1.000000
v -5.000000 0.125000 -3.250000
v -2.000000 0.000000 -3.500000
v -1.000000 0.000000 0.000000
v -4.000000 0.250000 -4.000000
v -3.000000 0.000000 -3.000000
v -2.500000 0.000000 -1.000000
v -2.000000 0.000000 -2.000000
v -3.000000 0.250000 -4.000000
v -2.000000 0.000000 -3.000000
v -4.000000 0.250000 -3.000000
v -5.000000 0.250000 -3.250000
v -1.000000 0.000000 -2.000000
v -4.000000 0.375000 -4.000000
v -3.000000 0.500000 -3.000000
v -2.500000 0.250000 -1.000000
v -2.000000 0.500000 -2.000000
v -2.000000 0.250000 -3.000000
v -4.000000 0.375000 -3.000000
vn 0.1104 -0.9937 -0.0184
vn -0.0415 -0.9957 -0.0830
vn -0.2408 -0.9631 -0.1204
vn 0.0000 -1.0000 0.0000
vn -0.1231 -0.9847 0.1231
vn -0.1839 -0.9810 -0.0613
vn -0.2357 -0.9428 0.2357
vn -0.1375 0.9903 -0.0183
vn 0.3015 0.9045 -0.3015
vn -0.1219 0.9755 0.1829
vn 0.1959 0.9794 0.0490
vn 0.0000 0.9701 0.2425
vn 0.4364 0.8729 -0.2182
vn 0.0623 0.9961 -0.0623
vn 0.0000 0.9923 -0.1240
vn -0.1231 0.9847 0.1231
vn 0.4472 0.0000 -0.8944
vn 1.0000 0.0000 0.0000
vn -0.5547 0.0000 0.8321
vn 0.0000 0.0000 -1.0000
vn 0.7071 0.0000 -0.7071
vn 0.1961 0.0000 -0.9806
vn -0.6402 0.0000 0.7682
vn -0.2425 0.0000 0.9701
vn -0.7071 0.0000 0.7071
vn -0.8944 0.0000 0.4472
usemtl Body
s off
f 16//1 7//1 2//1 10//1
f 15//2 11//2 4//2 8//2
f 12//3 5//3 13//3
f 6//4 12//4 13//4 18//4
f 9//4 12//4 6//4
f 18//4 13//4 15//4
f 13//5 5//5 11//5 15//5
f 11//6 16//6 10//6 4//6
f 5//7 16//7 11//7
f 24//8 19//8 2//8 17//8
f 23//9 8//9 14//9 20//9
f 21//10 22//10 3//10
f 1//11 18//11 22//11 21//11
f 9//12 1//12 21//12
f 18//13 23//13 22//13
f 22//14 23//14 20//14 3//14
f 20//15 14//15 19//15 24//15
f 3//16 20//16 24//16
f 4//17 14//17 8//17
f 6//18 1//18 9//18
f 9//19 21//19 12//19
f 10//20 19//20 14//20 4//20
f 15//21 23//21 18//21
f 18//18 1//18 6//18
f 2//22 19//22 10//22
f 7//23 17//23 2//23
f 8//18 23//18 15//18
f 16//24 24//24 17//24 7//24
f 5//25 3//25 24//25 16//25
f 12//26 21//26 3//26 5//26
o Plane.002
v 1.000000 0.250000 -1.000000
v 6.500000 0.000000 -4.500000
v 3.000000 0.375000 -2.000000
v 3.000000 0.125000 -4.000000
v 3.000000 0.250000 -2.000000
v 1.000000 0.000000 -1.000000
v 5.000000 0.125000 -3.250000
v 2.000000 0.000000 -3.500000
v 1.000000 0.000000 0.000000
v 4.000000 0.250000 -4.000000
v 3.000000 0.000000 -3.000000
v 2.500000 0.000000 -1.000000
v 2.000000 0.000000 -2.000000
v 3.000000 0.250000 -4.000000
v 2.000000 0.000000 -3.000000
v 4.000000 0.250000 -3.000000
v 5.000000 0.250000 -3.250000
v 1.000000 0.000000 -2.000000
v 4.000000 0.375000 -4.000000
v 3.000000 0.500000 -3.000000
v 2.500000 0.250000 -1.000000
v 2.000000 0.500000 -2.000000
v 2.000000 0.250000 -3.000000
v 4.000000 0.375000 -3.000000
vn -0.1104 -0.9937 -0.0184
vn 0.0415 -0.9957 -0.0830
vn 0.2408 -0.9631 -0.1204
vn 0.0000 -1.0000 0.0000
vn 0.1231 -0.9847 0.1231
vn 0.1839 -0.9810 -0.0613
vn 0.2357 -0.9428 0.2357
vn 0.1375 0.9903 -0.0183
vn -0.3015 0.9045 -0.3015
vn 0.1219 0.9755 0.1829
vn -0.1959 0.9794 0.0490
vn 0.0000 0.9701 0.2425
vn -0.4364 0.8729 -0.2182
vn -0.0623 0.9961 -0.0623
vn 0.0000 0.9923 -0.1240
vn 0.1231 0.9847 0.1231
vn -0.4472 0.0000 -0.8944
vn -1.0000 0.0000 0.0000
vn 0.5547 0.0000 0.8321
vn 0.0000 0.0000 -1.0000
vn -0.7071 0.0000 -0.7071
vn -0.1961 0.0000 -0.9806
vn 0.6402 0.0000 0.7682
vn 0.2425 0.0000 0.9701
vn 0.7071 0.0000 0.7071
vn 0.8944 0.0000 0.4472
usemtl Body
s off
f 40//27 34//27 26//27 31//27
f 39//28 32//28 28//28 35//28
f 36//29 37//29 29//29
f 30//30 42//30 37//30 36//30
f 33//30 30//30 36//30
f 42//30 39//30 37//30
f 37//31 39//31 35//31 29//31
f 35//32 28//32 34//32 40//32
f 29//33 35//33 40//33
f 48//34 41//34 26//34 43//34
f 47//35 44//35 38//35 32//35
f 45//36 27//36 46//36
f 25//37 45//37 46//37 42//37
f 33//38 45//38 25//38
f 42//39 46//39 47//39
f 46//40 27//40 44//40 47//40
f 44//41 48//41 43//41 38//41
f 27//42 48//42 44//42
f 28//43 32//43 38//43
f 30//44 33//44 25//44
f 33//45 36//45 45//45
f 34//46 28//46 38//46 43//46
f 39//47 42//47 47//47
f 42//44 30//44 25//44
f 26//48 34//48 43//48
f 31//49 26//49 41//49
f 32//44 39//44 47//44
f 40//50 31//50 41//50 48//50
f 29//51 40//51 48//51 27//51
f 36//52 29//52 27//52 45//52
o Plane.001
v 1.400000 2.000000 -5.200000
v 1.400000 -2.000000 -5.200000
v 1.400000 0.000000 2.800000
v 1.400000 0.000000 -1.200000
v 1.150000 2.000000 -5.200000
v 1.150000 -0.000000 -1.200000
v 1.150000 -2.000000 -5.200000
v 1.525000 1.000000 -1.200000
v 1.650000 1.000000 -3.200000
v 1.525000 -1.000000 -3.200000
v 1.650000 0.000000 0.800000
v 1.525000 -1.000000 -1.200000
vn 0.9300 -0.3487 0.1162
vn 0.9300 0.3487 0.1162
vn 0.0000 -0.9701 0.2425
vn 0.0000 -0.8944 -0.4472
vn 0.0000 0.8944 -0.4472
vn 0.0000 0.9701 0.2425
vn -0.9904 -0.1238 0.0619
vn -0.9904 0.1238 0.0619
vn 0.8889 -0.4444 -0.1111
vn 0.9684 0.2421 0.0605
vn 0.9347 0.3505 0.0584
vn 0.9923 -0.1240 0.0000
vn 0.9300 0.3487 -0.1162
usemtl Color
s off
f 51//53 60//53 59//53
f 51//54 59//54 56//54
f 51//55 55//55 50//55
f 52//56 54//56 53//56 49//56
f 51//55 50//55 60//55
f 50//57 52//57 58//57
f 49//58 51//58 56//58
f 52//56 49//56 57//56
f 51//59 54//59 55//59
f 51//60 53//60 54//60
f 50//57 55//57 54//57 52//57
f 49//58 53//58 51//58
f 59//61 52//61 57//61
f 59//62 57//62 56//62
f 56//63 57//63 49//63
f 60//64 50//64 58//64
f 60//64 58//64 59//64
f 59//65 58//65 52//65
o Plane
v -1.400000 2.000000 -5.200000
v -1.400000 -2.000000 -5.200000
v -1.400000 0.000000 -1.200000
v -1.150000 2.000000 -5.200000
v -1.400000 0.000000 2.800000
v -1.150000 0.000000 -1.200000
v -1.150000 -2.000000 -5.200000
v -1.525000 1.000000 -1.200000
v -1.650000 1.000000 -3.200000
v -1.525000 -1.000000 -3.200000
v -1.650000 0.000000 0.800000
v -1.525000 -1.000000 -1.200000
vn -0.9300 -0.3487 0.1162
vn -0.9300 0.3487 0.1162
vn 0.0000 -0.9701 0.2425
vn 0.0000 -0.8944 -0.4472
vn 0.0000 0.8944 -0.4472
vn 0.0000 0.9701 0.2425
vn 0.9904 -0.1238 0.0619
vn 0.9904 0.1238 0.0619
vn -0.8889 -0.4444 -0.1111
vn -0.9684 0.2421 0.0605
vn -0.9347 0.3505 0.0584
vn -0.9923 -0.1240 0.0000
vn -0.9300 0.3487 -0.1162
usemtl Color
s off
f 65//66 71//66 72//66
f 65//67 68//67 71//67
f 65//68 62//68 67//68
f 63//69 61//69 64//69 66//69
f 65//68 72//68 62//68
f 62//70 70//70 63//70
f 61//71 68//71 65//71
f 63//69 69//69 61//69
f 65//72 67//72 66//72
f 65//73 66//73 64//73
f 62//70 63//70 66//70 67//70
f 61//71 65//71 64//71
f 71//74 69//74 63//74
f 71//75 68//75 69//75
f 68//76 61//76 69//76
f 72//77 70//77 62//77
f 72//77 71//77 70//77
f 71//78 63//78 70//78
o Cube.001_Cube.002
v 0.000000 0.900000 1.500000
v 0.000000 1.150000 -2.500000
v -0.707107 0.650000 -1.000000
v 0.000000 1.857107 -1.000000
v 0.707107 0.650000 -1.000000
vn -0.8394 0.4917 -0.2318
vn 0.8471 0.4962 0.1900
vn 0.8394 0.4917 -0.2318
vn -0.8471 0.4962 0.1900
usemtl Glass
s off
f 75//79 76//79 74//79
f 77//80 76//80 73//80
f 74//81 76//81 77//81
f 73//82 76//82 75//82
o Cube_Cube.001
v -1.414214 0.000000 -1.000000
v 0.000000 1.414214 -1.000000
v 0.000000 0.000000 8.000000
v 0.000000 -1.414214 -1.000000
v 1.414214 0.000000 -1.000000
v 0.000000 1.414214 -2.000000
v -1.414214 0.000000 -2.000000
v 0.000000 -1.414214 -2.000000
v 1.414214 0.000000 -2.000000
v 0.000000 1.060660 -3.000000
v -1.060660 0.000000 -3.000000
v 0.000000 -1.060660 -3.000000
v 1.060660 0.000000 -3.000000
v 0.000000 0.397748 -3.200000
v -0.397748 0.000000 -3.200000
v 0.000000 -0.397748 -3.200000
v 0.397748 0.000000 -3.200000
vn -0.7028 0.7028 0.1104
vn 0.7071 0.7071 0.0000
vn 0.7028 -0.7028 0.1104
vn -0.7028 -0.7028 0.1104
vn 0.7028 0.7028 0.1104
vn -0.6860 -0.6860 -0.2425
vn -0.7071 0.7071 0.0000
vn 0.7071 -0.7071 0.0000
vn -0.7071 -0.7071 0.0000
vn 0.2775 0.2775 -0.9198
vn 0.6860 0.6860 -0.2425
vn -0.6860 0.6860 -0.2425
vn 0.6860 -0.6860 -0.2425
vn 0.0000 0.0000 -1.0000
vn -0.2775 0.2775 -0.9198
vn 0.2775 -0.2775 -0.9198
vn -0.2775 -0.2775 -0.9198
usemtl Body
s off
f 80//83 79//83 78//83
f 79//84 82//84 86//84 83//84
f 81//85 82//85 80//85
f 78//86 81//86 80//86
f 82//87 79//87 80//87
f 85//88 84//88 88//88 89//88
f 78//89 79//89 83//89 84//89
f 82//90 81//90 85//90 86//90
f 81//91 78//91 84//91 85//91
f 87//92 90//92 94//92 91//92
f 83//93 86//93 90//93 87//93
f 84//94 83//94 87//94 88//94
f 86//95 85//95 89//95 90//95
f 92//96 91//96 94//96 93//96
f 88//97 87//97 91//97 92//97
f 90//98 89//98 93//98 94//98
f 89//99 88//99 92//99 93//99
