# Blender v2.79 (sub 0) OBJ File: ''
# www.blender.org
mtllib Wheat.mtl
o Wheat_Full_Plane.002
v 0.250000 -0.500000 0.500000
v 0.250000 0.500000 0.500000
v 0.250000 -0.500000 -0.500000
v 0.250000 0.500000 -0.500000
v -0.250000 -0.500000 0.500000
v -0.250000 0.500000 0.500000
v -0.250000 -0.500000 -0.500000
v -0.250000 0.500000 -0.500000
v 0.500000 -0.500000 -0.250000
v 0.500000 0.500000 -0.250000
v -0.500000 -0.500000 -0.250000
v -0.500000 0.500000 -0.250000
v 0.500000 -0.500000 0.250000
v 0.500000 0.500000 0.250000
v -0.500000 -0.500000 0.250000
v -0.500000 0.500000 0.250000
vt 0.062500 0.750000
vt 0.062500 0.687500
vt 0.125000 0.687500
vt 0.125000 0.750000
vt 0.062500 0.750000
vt 0.062500 0.687500
vt 0.125000 0.687500
vt 0.125000 0.750000
vt 0.062500 0.750000
vt 0.062500 0.687500
vt 0.125000 0.687500
vt 0.125000 0.750000
vt 0.062500 0.750000
vt 0.062500 0.687500
vt 0.125000 0.687500
vt 0.125000 0.750000
vn -1.0000 -0.0000 0.0000
vn 0.0000 -0.0000 1.0000
usemtl Material.001
s off
f 4/1/1 3/2/1 1/3/1 2/4/1
f 8/5/1 7/6/1 5/7/1 6/8/1
f 12/9/2 11/10/2 9/11/2 10/12/2
f 16/13/2 15/14/2 13/15/2 14/16/2
